HIERARCHY
ROOT Hips
{
 OFFSET 0.000000 0.000000 0.000000
 CHANNELS 6 Xposition Yposition Zposition Yrotation Xrotation Zrotation
 JOINT Chest
 {
  OFFSET 0.000000 9.585900 0.002600
  CHANNELS 3 Yrotation Xrotation Zrotation
  JOINT Chest2
  {
   OFFSET 0.000000 9.601200 -0.005300
   CHANNELS 3 Yrotation Xrotation Zrotation
   JOINT Chest3
   {
    OFFSET 0.000000 9.561800 0.000000
    CHANNELS 3 Yrotation Xrotation Zrotation
    JOINT Chest4
    {
     OFFSET 0.000000 9.552100 0.000000
     CHANNELS 3 Yrotation Xrotation Zrotation
     JOINT Neck
     {
      OFFSET 0.000000 14.453000 0.000000
      CHANNELS 3 Yrotation Xrotation Zrotation
      JOINT Head
      {
       OFFSET 0.000000 8.936500 -0.011300
       CHANNELS 3 Yrotation Xrotation Zrotation
       End Site
       {
        OFFSET 0.000000 17.073600 -0.006000
       }
      }
     }
     JOINT RightCollar
     {
      OFFSET -2.921100 9.558500 0.000000
      CHANNELS 3 Yrotation Xrotation Zrotation
      JOINT RightShoulder
      {
       OFFSET -13.519700 0.000000 0.000000
       CHANNELS 3 Yrotation Xrotation Zrotation
       JOINT RightElbow
       {
        OFFSET 0.000000 -29.696600 0.000000
        CHANNELS 3 Yrotation Xrotation Zrotation
        JOINT RightWrist
        {
         OFFSET 0.000000 -24.004700 0.000000
         CHANNELS 3 Yrotation Xrotation Zrotation
         End Site
         {
          OFFSET 0.000000 -17.728500 0.000000
         }
        }
       }
      }
     }
     JOINT LeftCollar
     {
      OFFSET 2.921100 9.558500 0.000000
      CHANNELS 3 Yrotation Xrotation Zrotation
      JOINT LeftShoulder
      {
       OFFSET 13.519700 0.000000 0.000000
       CHANNELS 3 Yrotation Xrotation Zrotation
       JOINT LeftElbow
       {
        OFFSET 0.000000 -29.696600 0.000000
        CHANNELS 3 Yrotation Xrotation Zrotation
        JOINT LeftWrist
        {
         OFFSET 0.000000 -24.004700 0.000000
         CHANNELS 3 Yrotation Xrotation Zrotation
         End Site
         {
          OFFSET 0.000000 -17.728500 0.000000
         }
        }
       }
      }
     }
    }
   }
  }
 }
 JOINT RightHip
 {
  OFFSET -7.771700 -0.012900 -0.001300
  CHANNELS 3 Yrotation Xrotation Zrotation
  JOINT RightKnee
  {
   OFFSET 0.000000 -40.869800 0.001200
   CHANNELS 3 Yrotation Xrotation Zrotation
   JOINT RightAnkle
   {
    OFFSET 0.000000 -39.717900 0.002100
    CHANNELS 3 Yrotation Xrotation Zrotation
    JOINT RightToe
    {
     OFFSET 0.000000 -4.965400 11.033500
     CHANNELS 3 Yrotation Xrotation Zrotation
     End Site
     {
      OFFSET 0.000000 -1.423100 5.872300
     }
    }
   }
  }
 }
 JOINT LeftHip
 {
  OFFSET 7.771700 -0.012900 -0.001300
  CHANNELS 3 Yrotation Xrotation Zrotation
  JOINT LeftKnee
  {
   OFFSET 0.000000 -40.869800 0.001200
   CHANNELS 3 Yrotation Xrotation Zrotation
   JOINT LeftAnkle
   {
    OFFSET 0.000000 -39.717900 0.002100
    CHANNELS 3 Yrotation Xrotation Zrotation
    JOINT LeftToe
    {
     OFFSET 0.000000 -4.965400 11.033500
     CHANNELS 3 Yrotation Xrotation Zrotation
     End Site
     {
      OFFSET 0.000000 -1.423100 5.872300
     }
    }
   }
  }
 }
}
MOTION
Frames: 11
Frame Time: 0.008333
-35.902610 56.324355 -5.696923 176.156841 -10.468811 -0.381747 2.004109 16.067010 2.137502 0.162386 1.596910 0.225952 0.279328 2.688535 0.393312 1.679838 14.143010 2.197621 2.279057 15.036266 -2.632360 3.007940 -9.884518 -3.300486 3.422017 3.169687 0.459059 1.044608 -14.107588 -10.820118 -82.407062 -55.897504 116.106381 -12.056085 3.959705 -6.803666 -5.330151 0.545694 0.042937 2.942809 -18.135500 3.192183 71.814123 -54.888444 -111.150215 9.206283 -22.354547 10.580935 -1.110579 -64.610978 15.199272 -26.201947 84.308887 -28.078957 -11.491997 -17.086305 5.634452 0.121032 -0.130269 -0.349811 19.922363 -59.789212 -20.437643 71.984243 70.003953 73.019702 -6.543193 -15.640487 -0.312894 0.473045 0.806525 0.189870
-35.908296 56.323694 -5.701138 176.180774 -10.512974 -0.416731 1.966550 16.042229 2.122395 0.179682 1.650955 0.258623 0.274377 2.670588 0.382047 1.658494 14.094797 2.162783 2.273461 15.002113 -2.620484 2.999045 -9.921051 -3.286235 3.382259 3.125165 0.463863 1.035021 -13.936613 -10.883101 -82.386257 -55.882069 116.106269 -12.046496 3.981170 -6.805260 -5.341229 0.506059 0.058638 2.939969 -18.109469 3.215221 71.867941 -54.900305 -111.186051 9.193919 -22.362916 10.640492 -1.224323 -64.559296 15.262150 -26.467402 84.320683 -28.338956 -11.504764 -17.169904 5.756083 0.121713 -0.136230 -0.319475 19.827773 -59.765522 -20.368727 71.992639 70.013934 73.045610 -6.528623 -15.630445 -0.322683 0.482171 0.796137 0.190323
-35.913634 56.323662 -5.702950 176.181829 -10.541295 -0.445656 1.952322 16.013495 2.113294 0.165628 1.602751 0.231579 0.290199 2.710163 0.406212 1.651342 14.076330 2.143396 2.265996 14.965380 -2.610221 2.988456 -9.960360 -3.273321 3.339895 3.074748 0.469873 1.031526 -13.774313 -10.942767 -82.374065 -55.875973 116.105738 -12.040307 4.000352 -6.811050 -5.354319 0.463180 0.071451 2.942717 -18.079726 3.239332 71.874790 -54.914860 -111.167227 9.189388 -22.363831 10.686380 -1.386926 -64.503326 15.358477 -26.280118 84.335455 -28.170396 -11.489255 -17.309713 5.900572 0.075389 -0.079317 -0.360003 19.796418 -59.761214 -20.349640 72.042024 69.999341 73.114002 -6.440783 -15.528789 -0.310036 0.398477 0.695310 0.157166
-35.919710 56.324514 -5.703745 176.191868 -10.560672 -0.465395 1.923550 15.974620 2.089588 0.160307 1.582550 0.220147 0.297032 2.719294 0.414553 1.646425 14.059033 2.122163 2.257321 14.927135 -2.600358 2.976636 -10.001167 -3.260543 3.297107 3.017270 0.478349 1.028011 -13.618063 -10.994366 -82.356130 -55.867623 116.095369 -12.038345 4.019495 -6.813078 -5.366062 0.417844 0.084167 2.945934 -18.045547 3.264378 71.874173 -54.937100 -111.145212 9.207711 -22.332736 10.749409 -1.446380 -64.477737 15.387267 -26.597311 84.340258 -28.493377 -11.503380 -17.405176 6.083492 0.093446 -0.055668 -0.406953 19.758865 -59.752407 -20.320326 72.050088 69.999862 73.129840 -6.437154 -15.518880 -0.304954 0.398735 0.685588 0.157078
-35.924889 56.326548 -5.705011 176.194597 -10.580305 -0.480132 1.898648 15.932647 2.058818 0.160217 1.577651 0.217589 0.278091 2.660013 0.378118 1.672416 14.092194 2.136297 2.247934 14.888428 -2.591024 2.964188 -10.042387 -3.248206 3.255030 2.955758 0.490199 1.019875 -13.468991 -11.033658 -82.314929 -55.850297 116.064820 -12.041417 4.043174 -6.811033 -5.375784 0.373247 0.099057 2.947348 -18.008675 3.288512 71.866934 -54.961922 -111.118207 9.183901 -22.354512 10.732835 -1.540198 -64.430803 15.435139 -26.441691 84.349470 -28.359837 -11.524690 -17.517282 6.274091 0.107995 -0.023580 -0.460331 19.737019 -59.740621 -20.298920 72.059802 70.003328 73.144073 -6.460777 -15.568724 -0.300116 0.425623 0.733746 0.174891
-35.924580 56.330682 -5.711776 176.187789 -10.632297 -0.512895 1.886119 15.917893 2.046301 0.174859 1.609362 0.237541 0.256614 2.596288 0.339848 1.683272 14.092407 2.126438 2.237951 14.848352 -2.582028 2.951244 -10.085038 -3.236025 3.212024 2.892312 0.506511 1.003567 -13.328376 -11.061668 -82.241577 -55.818706 116.013024 -12.066734 4.049489 -6.774958 -5.385987 0.330177 0.118276 2.949575 -17.968568 3.311441 71.849763 -54.985546 -111.080146 9.177898 -22.341385 10.727860 -1.674226 -64.351423 15.539661 -26.722526 84.347290 -28.661531 -11.500430 -17.668548 6.483669 0.091311 0.026979 -0.523612 19.726046 -59.703086 -20.274342 72.070452 69.996228 73.193897 -6.378054 -15.476784 -0.288633 0.350989 0.641322 0.142392
-35.925824 56.335356 -5.717201 176.187701 -10.672184 -0.525732 1.858969 15.888698 2.010477 0.190183 1.643121 0.256538 0.241793 2.548642 0.313143 1.687742 14.072941 2.103711 2.226411 14.805732 -2.573562 2.936804 -10.130342 -3.223945 3.165108 2.827902 0.524489 0.976804 -13.196009 -11.082058 -82.142983 -55.770570 115.946331 -12.078121 4.096384 -6.790778 -5.397988 0.285798 0.139312 2.950138 -17.923000 3.336934 71.823468 -55.003926 -111.030241 9.190322 -22.311701 10.761589 -1.772058 -64.284492 15.597368 -26.964419 84.348295 -28.926253 -11.481118 -17.812730 6.690522 0.090818 0.063263 -0.570083 19.692936 -59.669583 -20.234543 72.094326 69.995505 73.225628 -6.374462 -15.473524 -0.286932 0.347028 0.630244 0.139710
-35.924563 56.340281 -5.720367 176.186787 -10.696573 -0.540785 1.835069 15.840864 1.977122 0.168061 1.580471 0.219960 0.266761 2.595950 0.341224 1.693666 14.051270 2.080785 2.213185 14.761316 -2.565329 2.920606 -10.177605 -3.211795 3.113947 2.764993 0.543064 0.937412 -13.073210 -11.093560 -82.024403 -55.712584 115.867539 -12.103966 4.141652 -6.797697 -5.413544 0.240652 0.159756 2.947544 -17.874021 3.366202 71.762201 -55.011386 -110.934843 9.188609 -22.306194 10.721157 -1.873675 -64.232293 15.663506 -26.972269 84.354560 -28.958330 -11.472071 -17.953919 6.881922 0.097152 0.095836 -0.597284 19.690507 -59.651233 -20.226224 72.107045 69.991089 73.259067 -6.355323 -15.459530 -0.285820 0.327893 0.612971 0.131353
-35.919755 56.345955 -5.724936 176.178703 -10.729007 -0.561468 1.823200 15.796430 1.950409 0.167664 1.576594 0.218030 0.268760 2.582696 0.334469 1.699923 14.026916 2.056286 2.198501 14.716342 -2.556307 2.902684 -10.225457 -3.198492 3.059954 2.704854 0.566356 0.888171 -12.960148 -11.095653 -81.889648 -55.653646 115.778466 -12.136715 4.168541 -6.786935 -5.432727 0.197503 0.182825 2.946777 -17.822417 3.395508 71.640457 -55.007552 -110.762588 9.184741 -22.313821 10.640691 -1.979308 -64.172072 15.746976 -26.881642 84.364659 -28.887551 -11.474588 -18.089416 7.051318 0.106500 0.119449 -0.604248 19.680958 -59.627838 -20.198045 72.122644 69.989080 73.296203 -6.332904 -15.445069 -0.283031 0.303386 0.594272 0.122432
-35.912369 56.351946 -5.729957 176.172012 -10.764302 -0.584803 1.811323 15.751290 1.924521 0.168172 1.569360 0.214571 0.269510 2.571059 0.328741 1.705001 14.000039 2.029905 2.182996 14.670342 -2.548329 2.884069 -10.274328 -3.186055 3.008018 2.646078 0.593258 0.832503 -12.855091 -11.089116 -81.746617 -55.599376 115.683679 -12.167815 4.184714 -6.779716 -5.447945 0.155431 0.207880 2.945651 -17.764538 3.425117 71.585300 -55.020014 -110.688368 9.201363 -22.286328 10.629395 -2.097604 -64.108150 15.846572 -26.712112 84.378429 -28.742435 -11.482200 -18.221102 7.204202 0.119497 0.136530 -0.596174 19.659193 -59.603684 -20.153971 72.140519 69.989071 73.332946 -6.316484 -15.432508 -0.286041 0.283497 0.577038 0.118339
-35.903064 56.357790 -5.734238 176.152489 -10.796233 -0.606381 1.811479 15.701484 1.898239 0.162910 1.539692 0.198547 0.276041 2.580396 0.335313 1.708869 13.970915 2.002941 2.166998 14.621860 -2.543520 2.865655 -10.325787 -3.176889 2.960221 2.586432 0.619222 0.770403 -12.754906 -11.074460 -81.610445 -55.553307 115.595932 -12.193029 4.194617 -6.779532 -5.456318 0.111989 0.230527 2.941089 -17.699262 3.459240 71.571030 -55.029165 -110.703638 9.206837 -22.242916 10.681807 -2.285034 -64.035001 16.024281 -26.451850 84.383988 -28.545330 -11.504504 -18.350846 7.348181 0.116248 0.156049 -0.582181 19.642437 -59.582257 -20.100065 72.161593 69.992530 73.369401 -6.302345 -15.429485 -0.292455 0.270756 0.565679 0.116495
